<svg width="496" height="512" viewBox="0 0 496 512" version="1.1" xmlns="http://www.w3.org/2000/svg"><path fill="currentColor" d="M 0,62.435889 V 340.94554 c 8.7626704,-7.7644 30.793296,-20.33933 66.092,-37.7259 35.2987,-17.38546 58.23904,-27.42835 68.82,-30.12978 30.256,17.89253 58.528,43.6336 84.816,77.22321 26.288,33.59072 45.71504,69.20529 58.28,106.84704 L 265.36,504 c 16.20304,-18.3985 56.13104,-40.51036 119.784,-66.33557 l -28.272,-4.55811 26.288,-13.41857 c -12.06896,0.84364 -24.71696,-2.36375 -37.944,-9.62107 -13.22704,-7.25843 -20.336,-16.03586 -21.328,-26.33229 -0.992,-10.29643 2.89296,-18.9886 11.656,-26.07875 8.76304,-7.08903 18.51696,-10.54885 29.264,-10.38057 11.24304,0.16939 21.53504,3.33361 30.876,9.49486 9.34096,6.16125 15.45904,13.92564 18.352,23.29318 2.89296,9.36864 1.19904,19.4536 -5.084,30.256 16.03696,0 28.80896,-3.67129 38.316,-11.01386 9.50704,-7.34146 18.55904,-18.60886 27.156,-33.79996 L 481.616,341.95857 496,315.62629 479.136,293.34614 c -11.24304,-24.98157 -26.20496,-53.08639 -44.888,-84.31335 -18.68304,-31.22586 -32.07504,-49.96204 -40.176,-56.20743 -7.60496,-7.59611 -13.18496,-13.12407 -16.74,-16.5839 -3.55504,-3.46092 -9.09296,-8.56707 -16.616,-15.31842 -7.52304,-6.75136 -13.97104,-11.98483 -19.344,-15.69818 C 335.99904,101.5115 329.55104,97.58668 322.028,93.4515 314.50496,89.31632 307.10704,86.06686 299.832,83.70421 293.88,71.888343 291.896,46.653789 293.88,8 c -16.03696,0 -30.504,1.645768 -43.4,4.937193 -12.896,3.291536 -23.64304,7.933343 -32.24,13.925532 -8.59696,5.992079 -15.54096,11.857721 -20.832,17.596707 -5.29104,5.738986 -10.25104,12.237472 -14.88,19.495679 C 144.50096,60.916779 83.658704,60.410371 0,62.435889 Z M 265.36,35.59775 c -1.15696,11.140404 -0.41296,28.188521 2.232,51.14446 -17.856,-4.3886 -35.712,-7.68013 -53.568,-9.87438 3.472,-17.04823 20.584,-30.804923 51.336,-41.27008 z m 43.4,148.87639 c 11.07696,0.84365 20.00496,2.02497 26.784,3.54397 6.77904,1.519 13.55696,4.51603 20.336,8.98889 6.77904,4.47286 12.4,8.94571 16.864,13.41857 4.464,4.47286 11.57296,12.02689 21.328,22.661 l -43.896,6.32954 z"></path></svg>