<svg width="496" height="512" viewBox="0 0 496 512" version="1.1" xmlns="http://www.w3.org/2000/svg"><path fill="currentColor" d="m 197.90179,504 h -26.01786 c -6.45797,0 -11.5785,-1.10714 -15.36161,-3.32143 -3.78311,-2.21428 -7.7035,-6.18118 -11.76339,-11.90178 L 79.4375,394.94643 C 60.431179,377.23214 44.885786,354.16704 32.799107,325.75 20.712429,297.33296 14.669643,272.42225 14.669643,251.01786 c 0,-7.56511 0.415178,-14.85454 1.245536,-21.86607 0.830357,-7.01154 2.444571,-14.34636 4.84375,-22.00447 2.399178,-7.65811 4.059892,-13.00893 4.982142,-16.05357 0.92225,-3.04464 3.229536,-8.85714 6.919643,-17.4375 3.690107,-8.58036 5.535715,-12.96243 5.535715,-13.14732 C 35.79725,152.94382 31.461679,140.16518 25.1875,122.17411 18.913321,104.18304 13.285714,87.89918 8.3035714,73.321429 3.3214286,58.743679 0.55357143,49.70275 0,46.196429 0.92225,45.274179 3.1830357,42.9215 6.78125,39.138393 c 3.598214,-3.783107 5.997393,-6.181179 7.196429,-7.196429 1.199035,-1.01525 3.690107,-3.044643 7.473214,-6.089285 3.783107,-3.044643 6.919643,-5.074036 9.410714,-6.089286 2.491072,-1.01525 6.135786,-2.537572 10.933036,-4.566964 4.79725,-2.029393 9.549107,-3.413322 14.254464,-4.151786 C 60.754464,10.306179 66.520464,9.614214 73.348214,8.96875 80.175964,8.323286 87.556179,8 95.491071,8 c 11.809889,0 21.819569,1.752607 30.031249,5.258929 8.21168,3.506321 14.06957,7.426714 17.57589,11.763392 3.50633,4.336679 7.51972,9.734 12.04018,16.191965 4.52047,6.457964 8.62686,11.348214 12.31697,14.669643 C 193.28832,47.395464 220.13654,43.151786 248,43.151786 c 27.86346,0 54.71168,4.243678 80.54464,12.732143 3.69011,-3.321429 7.7965,-8.211679 12.31697,-14.669643 4.52046,-6.457965 8.53385,-11.855286 12.04018,-16.191965 3.50632,-4.336678 9.36421,-8.257071 17.57589,-11.763392 C 378.68936,9.752607 388.69904,8 400.50893,8 c 7.93489,0 15.31511,0.323286 22.14286,0.96875 6.82775,0.645464 12.59375,1.337429 17.2991,2.075893 4.70536,0.738464 9.45722,2.122393 14.25447,4.151786 4.79725,2.029392 8.44196,3.551714 10.93303,4.566964 2.49107,1.01525 5.62761,3.044643 9.41072,6.089286 3.7831,3.044642 6.27418,5.074035 7.47321,6.089285 1.19904,1.01525 3.59822,3.413322 7.19643,7.196429 3.59821,3.783107 5.859,6.135786 6.78125,7.058036 -0.55357,3.506321 -3.32143,12.54725 -8.30357,27.125 -4.98214,14.577751 -10.60975,30.861611 -16.88393,48.852681 -6.27418,17.99107 -10.60975,30.76971 -13.00893,38.33482 0,0.18489 1.84561,4.56696 5.53572,13.14732 3.6901,8.58036 5.99739,14.39286 6.91964,17.4375 0.92225,3.04464 2.58296,8.39546 4.98214,16.05357 2.39918,7.65811 4.01339,14.99293 4.84375,22.00447 0.83036,7.01153 1.24554,14.30096 1.24554,21.86607 0,21.40439 -6.04279,46.3151 -18.12947,74.73214 -12.08668,28.41704 -27.63207,51.48214 -46.63839,69.19643 l -65.32143,93.83036 c -4.05989,5.7206 -7.98028,9.6875 -11.76339,11.90178 C 335.69457,502.89286 330.57514,504 324.11607,504 h -26.01786 c -3.50632,0 -6.31957,-0.69196 -8.44196,-2.07589 -2.12239,-1.38393 -3.55171,-3.18304 -4.29018,-5.39732 -0.73846,-2.21429 -1.29203,-4.75186 -1.66071,-7.61161 -0.36868,-2.85975 -0.46168,-5.766 -0.27679,-8.71875 0.18489,-2.95275 0.18489,-5.8125 0,-8.58036 -0.36868,-17.89918 -0.36868,-30.72321 0,-38.47321 -9.22582,0.92225 -21.03571,1.38393 -35.42857,1.38393 -14.39286,0 -26.20275,-0.46168 -35.42857,-1.38393 0.36868,7.75 0.36868,20.57403 0,38.47321 -0.18489,2.76786 -0.18489,5.62761 0,8.58036 0.18489,2.95275 0.0919,5.859 -0.27679,8.71875 -0.36868,2.85975 -0.92225,5.39732 -1.66071,7.61161 -0.73847,2.21428 -2.16779,4.01339 -4.29018,5.39732 C 204.22136,503.30804 201.41032,504 197.90179,504 Z M 156.38393,303.88393 c 0,11.44011 2.62946,21.72768 7.88839,30.86161 5.25893,9.13392 12.17857,16.56064 20.75893,22.28125 8.58036,5.7206 18.35975,10.10267 29.33929,13.14732 10.97953,3.04464 22.18935,4.56696 33.62946,4.56696 11.44011,0 22.64993,-1.52232 33.62946,-4.56696 10.97954,-3.04465 20.75893,-7.42672 29.33929,-13.14732 8.58036,-5.72061 15.5,-13.14733 20.75893,-22.28125 5.25893,-9.13393 7.88839,-19.4215 7.88839,-30.86161 0,-11.44011 -2.62946,-21.72768 -7.88839,-30.86161 -5.25893,-9.13393 -12.17857,-16.56064 -20.75893,-22.28125 -8.58036,-5.72061 -18.35975,-10.10268 -29.33929,-13.14732 -10.97953,-3.04464 -22.18935,-4.56696 -33.62946,-4.56696 -11.44011,0 -22.64993,1.52232 -33.62946,4.56696 -10.97954,3.04464 -20.75893,7.42671 -29.33929,13.14732 -8.58036,5.72061 -15.5,13.14732 -20.75893,22.28125 -5.25893,9.13393 -7.88839,19.4215 -7.88839,30.86161 z m 127.04464,22.97321 c -9.78382,0 -17.71428,-11.89625 -17.71428,-26.57143 0,-14.67517 7.93046,-26.57142 17.71428,-26.57142 9.78382,0 17.71429,11.89625 17.71429,26.57142 0,14.67518 -7.93047,26.57143 -17.71429,26.57143 z m -53.14286,-26.57143 c 0,-14.67517 -7.93046,-26.57142 -17.71428,-26.57142 -9.78382,0 -17.71429,11.89625 -17.71429,26.57142 0,14.67518 7.93047,26.57143 17.71429,26.57143 9.78382,0 17.71428,-11.89625 17.71428,-26.57143 z m -88.57142,-124 V 194 c 0,14.67518 11.89625,26.57143 26.57142,26.57143 14.67518,0 26.57143,-11.89625 26.57143,-26.57143 v -17.71429 c 0,-14.67517 -11.89625,-26.57142 -26.57143,-26.57142 -14.67517,0 -26.57142,11.89625 -26.57142,26.57142 z m 186,-26.57142 c -14.67518,0 -26.57143,11.89625 -26.57143,26.57142 V 194 c 0,14.67518 11.89625,26.57143 26.57143,26.57143 14.67517,0 26.57142,-11.89625 26.57142,-26.57143 v -17.71429 c 0,-14.67517 -11.89625,-26.57142 -26.57142,-26.57142 z"></path></svg>