<svg width="640" height="512" viewBox="0 0 640 512" version="1.1" xmlns="http://www.w3.org/2000/svg"><path fill="currentColor" d="M 60,16 C 26.8625,16 0,42.8625 0,76 v 360 c 0,33.1375 26.8625,60 60,60 h 520 c 33.2125,-0.075 60,-26.90875 60,-60 V 76 C 640,42.8625 613.1375,16 580,16 Z m 152.69091,140 c 22.06625,0 41.63249,5.50027 58.69874,16.49902 17.0675,11.00001 29.2783,25.93588 36.6333,44.80713 3.4475,9.045 1.70649,13.69385 -4.38476,13.69385 h -31.26954 c -2.2975,0 -4.51236,-0.3484 -5.89111,-0.7959 -1.38,-0.44625 -2.29879,-0.86607 -2.75879,-1.25733 -0.46,-0.39 -1.32045,-1.4791 -2.58545,-3.2666 -1.26375,-1.78625 -2.29802,-3.18201 -3.10302,-4.18701 -5.40125,-6.7 -12.06757,-12.00434 -19.99757,-15.91309 -7.93,-3.90875 -16.49228,-5.86181 -25.68604,-5.86181 -16.09,0 -29.79571,5.50028 -41.11572,16.49903 -11.32,11 -16.97998,24.26021 -16.97998,39.78271 0,15.5225 5.65999,28.78271 16.97998,39.78271 11.32001,10.99875 25.02572,16.49903 41.11572,16.49903 9.19375,0 17.75604,-1.9555 25.68604,-5.86425 7.93,-3.90875 14.59632,-9.21065 19.99757,-15.91065 0.805,-1.005 1.83927,-2.4032 3.10302,-4.18945 1.265,-1.7875 2.12545,-2.8766 2.58545,-3.2666 0.46,-0.39125 1.37879,-0.80864 2.75879,-1.25489 1.35375,-0.43875 3.51236,-0.7834 5.89111,-0.7959 h 31.26954 c 6.1175,0.0725 7.80476,4.71885 4.38476,13.69385 -7.355,18.87125 -19.5658,33.80713 -36.6333,44.80713 C 254.3234,350.49972 234.75716,356 212.69091,356 c -18.61875,0 -35.82835,-4.46712 -51.63085,-13.40087 -15.8025,-8.93375 -28.30137,-21.07812 -37.49512,-36.43312 -9.19375,-15.355 -13.7915,-32.07601 -13.7915,-50.16601 0,-18.09 4.59775,-34.81345 13.7915,-50.16845 9.19375,-15.355 21.69262,-27.49936 37.49512,-36.43311 C 176.86256,160.46469 194.07216,156 212.69091,156 Z m 226.20362,0 c 22.06625,0 41.63248,5.50027 58.69873,16.49902 17.0675,11.00001 29.2783,25.93588 36.6333,44.80713 3.4475,9.045 1.70649,13.69385 -4.38476,13.69385 h -31.26954 c -2.2975,0 -4.51236,-0.3484 -5.89111,-0.7959 -1.38,-0.44625 -2.29879,-0.86607 -2.75879,-1.25733 -0.46,-0.39 -1.32045,-1.4791 -2.58545,-3.2666 -1.26375,-1.78625 -2.29802,-3.18201 -3.10302,-4.18701 -5.40125,-6.7 -12.06756,-12.00434 -19.99756,-15.91309 -7.93,-3.90875 -16.49229,-5.86181 -25.68604,-5.86181 -16.09,0 -29.79571,5.50028 -41.11571,16.49903 -11.32,11 -16.97999,24.26021 -16.97999,39.78271 0,15.5225 5.65999,28.78271 16.97999,39.78271 11.32,10.99875 25.02571,16.49903 41.11571,16.49903 9.19375,0 17.75604,-1.95307 25.68604,-5.86182 7.93,-3.90875 14.59631,-9.21308 19.99756,-15.91308 0.805,-1.005 1.83927,-2.40077 3.10302,-4.18702 1.265,-1.7875 2.12545,-2.8766 2.58545,-3.2666 0.46,-0.39124 1.37879,-0.81107 2.75879,-1.25732 1.35375,-0.43875 3.51236,-0.7834 5.89111,-0.7959 h 31.26954 c 6.1175,0.0725 7.80476,4.71885 4.38476,13.69385 -7.355,18.87125 -19.5658,33.80713 -36.6333,44.80713 C 480.52701,350.49972 460.96077,356 438.89452,356 420.27577,356 403.06617,351.53288 387.26367,342.59913 371.46117,333.66538 358.9623,321.52346 349.76855,306.16846 340.5748,290.81346 335.97705,274.09 335.97705,256 c 0,-18.09 4.59775,-34.81346 13.7915,-50.16846 9.19375,-15.355 21.69262,-27.49691 37.49512,-36.43066 C 403.06618,160.46712 420.27577,156 438.89453,156 Z"></path></svg>