<svg width="465.96899" height="512" viewBox="0 0 465.96899 512" version="1.1" xmlns="http://www.w3.org/2000/svg"><path fill="currentColor" d="M 130.14381,318 H 335.2185 L 357.06091,99.807662 C 359.89159,70.596169 355.74631,47.991937 344.62313,31.995163 333.49897,15.998388 315.70206,8 291.23047,8 H 174.73828 c -24.47159,0 -42.37022,7.998388 -53.69587,23.995163 -11.32566,15.996774 -15.57266,38.601006 -12.741,67.812499 z M 310,411 H 155 v 72.73084 c 0,5.56353 -1.87066,10.33269 -5.61197,14.30747 C 145.64672,502.01309 141.04516,504 135.58431,504 H 97.0765 c -5.460263,0 -10.061244,-1.78831 -13.80275,-5.36591 -3.741506,-3.57662 -5.612259,-8.14718 -5.612259,-13.71072 l -0.303413,-80.77921 c -7.078462,-2.98085 -13.29745,-6.80644 -18.656962,-11.47582 -5.359416,-4.67034 -9.70765,-10.38306 -13.044704,-17.14009 -3.336956,-6.75606 -6.067281,-13.46272 -8.190781,-20.11997 -2.123597,-6.65725 -3.690937,-14.90325 -4.702215,-24.73994 -1.011182,-9.83668 -1.668479,-18.72981 -1.971891,-26.6784 -0.303316,-7.9486 -0.455022,-17.8841 -0.455022,-29.80747 C 21.437759,272.39416 14.157022,268.17137 8.4942228,261.51412 2.8314044,254.85687 0,246.66028 0,236.92337 c 0,-10.92943 3.8931834,-20.02115 11.679541,-27.27418 7.786425,-7.25303 19.870418,-10.88003 36.252175,-10.88003 7.078462,0 13.095272,0.99393 18.050234,2.98084 4.954963,1.98691 9.050353,5.11694 12.286269,9.38912 3.235818,4.27316 5.662828,8.04838 7.280737,11.3276 1.61791,3.27825 3.438094,7.89822 5.460553,13.8599 l 11.481331,96.24144 c 1.61782,8.14816 3.23563,12.81753 4.85344,14.01006 2.02275,1.58972 6.47222,2.3841 13.34841,2.3841 h 223.27653 c 7.48262,0 11.98247,-0.79438 13.49953,-2.3841 1.51706,-1.58971 3.0845,-6.26006 4.70231,-14.01006 l 12.18106,-96.24144 c 2.02276,-5.96168 3.84304,-10.58165 5.46085,-13.8599 1.61781,-3.27922 4.04453,-7.05444 7.28112,-11.3276 3.23563,-4.27218 7.3315,-7.40221 12.28569,-9.38912 4.95516,-1.98691 10.97206,-2.98084 18.05072,-2.98084 16.38156,0 28.5665,3.627 36.55578,10.88003 7.98831,7.25303 11.98247,16.34475 11.98247,27.27418 0,9.53832 -2.88203,17.6855 -8.64609,24.44157 -5.76407,6.75703 -13.19632,11.02922 -22.29675,12.81753 0,12.12197 -0.1521,22.10784 -0.45532,29.95666 -0.30321,7.84978 -0.961,16.79134 -1.97237,26.82662 -1.01041,10.03528 -2.52747,18.43144 -4.55022,25.1875 -2.02275,6.75703 -4.70231,13.5625 -8.03869,20.41834 -3.33734,6.85585 -7.68606,12.61894 -13.04519,17.28928 -5.35912,4.66938 -11.5785,8.49497 -18.65715,11.47582 v 79.58668 c 0,5.56354 -1.87066,10.1341 -5.61197,13.71072 C 378.95369,502.21169 374.35212,504 368.89225,504 h -39.47656 c -5.46085,0 -10.06241,-1.78831 -13.80372,-5.36591 C 311.87066,495.05747 310,490.48691 310,484.92337 Z"></path></svg>