<svg width="496.00034" height="512" viewBox="0 0 496.00034 512" version="1.1" xmlns="http://www.w3.org/2000/svg"><path fill="currentColor" d="m 221.34718,394.46215 c 8.95394,-0.44343 17.05207,-3.33792 24.29327,-8.68346 3.68712,-2.87564 6.88868,-5.08946 9.60579,-6.64146 2.71601,-1.552 5.21917,-2.89892 7.50837,-4.04186 2.2892,-1.14294 5.62712,-1.94998 10.01263,-2.42223 4.38552,-0.47114 8.13582,-0.88353 11.25202,-1.23384 3.1162,-0.35142 9.04374,-0.79707 17.78263,-1.33805 8.73888,-0.53988 16.73613,-1.06867 23.99063,-1.58637 23.54943,-0.37137 46.61995,-6.87315 69.21267,-19.50424 22.59273,-12.63108 41.77881,-28.72979 57.55824,-48.2961 15.77943,-19.56522 27.64228,-42.0881 35.58853,-67.56644 7.94736,-25.47834 9.85854,-50.55982 5.73576,-75.24331 C 490.23386,136.02931 482.19781,115.5329 469.77846,96.412225 461.56726,83.771165 452.1843,72.423803 441.63068,62.370152 431.57703,51.816533 420.22967,42.433569 407.58861,34.222366 388.46794,21.803019 367.97041,13.765862 346.09605,10.113113 c -24.6835,-4.1238925 -49.76497,-2.2116035 -75.24331,5.735758 -25.47945,7.946254 -48.00123,19.809097 -67.56755,35.58853 -19.56521,15.779433 -35.66391,34.965514 -48.295,57.558239 -12.63108,22.59273 -19.13286,45.66325 -19.50424,69.21267 -0.5177,7.25451 -1.04649,15.25175 -1.58747,23.99064 -0.53988,8.73888 -0.98552,14.66642 -1.33694,17.78262 -0.35142,3.1162 -0.7627,6.86651 -1.23384,11.25202 -0.47226,4.38552 -1.2793,7.72232 -2.42224,10.01264 -1.14294,2.2892 -2.48985,4.79236 -4.04186,7.50836 -1.552,2.71712 -3.76582,5.91868 -6.64146,9.60579 -5.34554,7.2412 -8.24002,15.33933 -8.68345,24.29328 -0.38357,7.73008 1.36243,15.03004 5.91313,21.77349 l -14.25626,14.25625 c -26.310876,-12.39385 -58.666806,-7.71678 -80.414798,14.03121 -27.7076826,27.70769 -27.7076826,72.6293 0,100.33698 9.13797,9.13797 20.14832,15.26173 31.7961,18.37238 3.109549,11.64778 9.234416,22.65813 18.372387,31.7961 27.706573,27.70658 72.629291,27.70658 100.335861,0 22.71024,-22.71023 26.80642,-56.9851 12.28854,-83.8669 l 13.02463,-13.02573 c 7.55382,6.20468 15.86812,8.57481 24.7489,8.13471 z m -81.20411,-64.55777 31.35489,31.35489 -38.39544,38.39544 c 4.78239,1.71163 9.26878,4.48307 13.0989,8.31319 0.36473,0.36472 0.72058,0.73609 1.06645,1.1119 3.28138,3.57515 5.69696,7.66024 7.24675,11.98589 4.48196,12.5158 1.71052,27.04587 -8.3132,37.06959 -13.85384,13.85384 -36.31464,13.85384 -50.168482,0 -2.162827,-2.16283 -3.988647,-4.53629 -5.476353,-7.05275 -5.403186,-9.14351 -6.349908,-20.19155 -2.841273,-30.00243 0.2716,-0.75826 0.568698,-1.50987 0.89351,-2.25262 1.525397,-3.48868 3.638338,-6.78114 6.339931,-9.72773 0.351418,-0.38356 0.712813,-0.76048 1.084185,-1.13185 -0.371372,0.37137 -0.749396,0.73277 -1.132962,1.08418 -2.541959,2.33022 -5.342215,4.22256 -8.302106,5.67812 -2.723765,1.33915 -5.583884,2.30694 -8.504975,2.90446 -8.494997,1.73824 -17.504373,0.34144 -25.174592,-4.19152 -2.51757,-1.4877 -4.889917,-3.31242 -7.053852,-5.47524 -13.853841,-13.85384 -13.853841,-36.31576 0,-50.16849 11.017002,-11.017 27.47599,-13.27295 40.722333,-6.76895 2.972085,1.45999 5.782319,3.36009 8.333146,5.7025 0.376915,0.34588 0.748287,0.70062 1.113008,1.06645 2.836839,2.83684 5.093892,6.03507 6.768952,9.44615 z M 297.70793,66.581622 c 1.26599,1.477728 2.18056,3.060771 2.74372,4.749128 1.54756,4.504134 0.84473,7.388645 -2.11073,8.654635 -15.47679,6.61485 -29.5468,15.23401 -42.21004,25.858585 -12.66212,10.62567 -23.18027,23.46628 -31.5511,38.52403 -8.37195,15.05775 -12.8395,30.88929 -13.40265,47.49572 -0.14079,3.5175 -1.44226,6.43748 -3.9044,8.75994 -2.46214,2.32247 -4.81897,2.91999 -7.06937,1.79479 -6.19138,-3.09625 -10.55251,-6.33328 -13.0856,-9.71111 -2.81356,-3.79908 -3.86892,-8.37305 -3.16609,-13.72081 3.51751,-26.17453 12.76855,-49.50002 27.75314,-69.97537 14.98458,-20.476465 34.43672,-37.117255 58.3553,-49.923494 7.59816,-4.362236 13.50796,-4.713654 17.7283,-1.055362 0.42237,0.422367 1.86462,1.583043 4.32676,3.483138 2.46215,1.900094 4.32677,3.588452 5.59276,5.06618 z"></path></svg>