<svg width="372.36365" height="512" viewBox="0 0 372.36365 512" version="1.1" xmlns="http://www.w3.org/2000/svg"><path fill="currentColor" d="m 372.36365,297.89091 q 0,11.63636 -8.14546,19.78182 -8.14545,8.14545 -19.78182,8.14545 -14.83636,0 -23.27272,-12.50909 l -66.03637,-99.2 h -13.09091 v 38.4 l 71.85455,119.56364 q 2.61818,4.36363 2.61818,9.6 0,7.56363 -5.52727,13.09091 -5.52727,5.52727 -13.09091,5.52727 h -55.85455 v 79.12727 q 0,13.38182 -9.6,22.98182 -9.6,9.6 -22.98181,9.6 H 162.9091 q -13.38182,0 -22.98182,-9.6 -9.6,-9.6 -9.6,-22.98182 V 400.29091 H 74.472728 q -7.56364,0 -13.09091,-5.52727 -5.52727,-5.52728 -5.52727,-13.09091 0,-5.23637 2.61818,-9.6 L 130.32728,252.50909 v -38.4 h -13.09091 l -66.036372,99.2 q -8.43636,12.50909 -23.272728,12.50909 -11.63636,0 -19.78182,-8.14545 Q 0,309.52727 0,297.89091 0,289.45455 4.65455,282.47273 L 79.127268,170.76364 q 21.236382,-31.12728 51.200012,-31.12728 h 111.70909 q 29.96364,0 51.2,31.12728 l 74.47273,111.70909 q 4.65455,6.98182 4.65455,15.41818 z M 251.34546,65.163637 q 0,27.054544 -19.05454,46.109093 -19.05455,19.05454 -46.10909,19.05454 -27.05455,0 -46.10909,-19.05454 -19.05455,-19.054549 -19.05455,-46.109093 0,-27.054545 19.05455,-46.109091 Q 159.12728,0 186.18183,0 q 27.05454,0 46.10909,19.054546 19.05454,19.054546 19.05454,46.109091 z"></path></svg>