<svg width="496" height="512" viewBox="0 0 496 512" version="1.1" xmlns="http://www.w3.org/2000/svg"><path fill="currentColor" d="m 248,167.42857 c -27.09511,0 -70.85714,9.22804 -70.85714,59.78571 v 57.57144 c 0,11.93167 2.43682,21.5605 6.51775,29.3105 l 83.73431,-145.0324 C 260.55611,167.86368 253.88557,167.42857 248,167.42857 Z m 0,177.14286 c -5.94535,0 -12.6934,-0.44396 -19.60529,-1.67178 l 83.83396,-145.20512 c 4.14737,7.78544 6.62847,17.48068 6.62847,29.51975 v 57.57144 c 0,50.55767 -43.76203,59.78571 -70.85714,59.78571 z M 53.142857,8 C 23.792832,8 0,31.792832 0,61.142857 V 450.85714 C 0,480.2075 23.792832,504 53.142857,504 H 442.85714 C 472.2075,504 496,480.2075 496,450.85714 V 61.142857 C 496,31.792832 472.2075,8 442.85714,8 Z M 248,114.28571 c 70.24821,0 124,33.80107 124,115.14286 v 53.14286 c 0,81.34178 -53.75179,115.14286 -124,115.14286 -70.24821,0 -124,-33.80108 -124,-115.14286 v -53.14286 c 0,-81.34179 53.75179,-115.14286 124,-115.14286 z"></path></svg>