<svg width="496" height="512" viewBox="0 0 496 512" version="1.1" xmlns="http://www.w3.org/2000/svg"><path fill="currentColor" d="M 442.85714,8 C 472.2075,8 496,31.793607 496,61.142857 V 450.85714 C 496,480.2075 472.2075,504 442.85714,504 H 53.142857 C 23.7925,504 0,480.2075 0,450.85714 V 61.142857 C 0,31.793607 23.7925,8 53.142857,8 Z M 191.94868,326.85714 c 6.54985,-23.87885 39.38549,-38.0226 73.54196,-42.59953 49.63654,-6.65061 106.50937,-29.11897 106.50937,-85.82904 0,-55.8775 -53.7518,-84.14286 -124.00001,-84.14286 -63.69614,0 -108.75907,21.29036 -122.89839,68.64286 -3.19522,10.76143 0.61446,19.92857 10.73485,19.92857 h 38.16765 c 4.79394,0 6.72035,0 10.67396,-4.9755 15.14019,-25.47093 29.54632,-30.45307 63.32193,-30.45307 11.59511,0 57.23043,1.47804 57.23043,31 0,29.26511 -36.53461,35.26804 -74.72107,40.38525 -46.99379,6.29632 -100.47654,36.69736 -106.0355,88.04332 H 124 v 53.14287 c 0,9.78381 7.93046,17.71428 17.71429,17.71428 h 212.57142 c 9.78383,0 17.7143,-7.93047 17.7143,-17.71428 v -35.42858 c 0,-9.78382 -7.93047,-17.71429 -17.7143,-17.71429 z"></path></svg>