<svg width="496" height="512" viewBox="0 0 496 512" version="1.1" xmlns="http://www.w3.org/2000/svg"><path fill="currentColor" d="M 442.85714,504 H 53.142857 C 23.7925,504 0,480.2075 0,450.85714 V 61.142857 C 0,31.7925 23.7925,8 53.142857,8 H 442.85714 C 472.2075,8 496,31.7925 496,61.142857 V 450.85714 C 496,480.2075 472.2075,504 442.85714,504 Z M 135.83646,310.219 c -10.12039,0.001 -13.93007,9.17046 -10.73485,19.93521 14.13932,47.36911 59.20225,68.66722 122.89839,68.66722 70.24821,0 124,-28.27532 124,-84.17275 0,-26.30018 -12.22396,-44.96107 -30.28368,-58.09622 C 359.77604,243.97089 372,225.86579 372,199.56561 c 0,-55.89743 -53.75179,-84.17275 -124,-84.17275 -63.69614,0 -108.75907,21.2981 -122.89839,68.66721 -3.19522,10.76475 0.61446,19.93522 10.73485,19.93522 h 38.16765 c 4.79393,0 6.72035,0 10.67396,-4.97661 15.14018,-25.47979 29.54632,-30.46414 63.32193,-30.46414 11.59511,0 57.23043,1.47914 57.23043,31.01107 0,9.50039 -3.84732,16.058 -10.34957,21.00582 h -64.59515 c -9.78382,0 -17.71428,7.93046 -17.71428,17.71428 v 35.42858 c 0,9.78382 7.93046,17.71428 17.71428,17.71428 h 63.55443 c 7.13111,5.673 11.39029,13.22372 11.39029,23.22011 0,29.53193 -45.63532,31.01107 -57.23043,31.01107 -33.77561,0 -48.18175,-4.98436 -63.32193,-30.46414 -3.95361,-4.97661 -5.88003,-4.97661 -10.67396,-4.97661 z"></path></svg>