<?xml version="1.0" encoding="UTF-8" standalone="no"?>
<svg
   xmlns:dc="http://purl.org/dc/elements/1.1/"
   xmlns:cc="http://creativecommons.org/ns#"
   xmlns:rdf="http://www.w3.org/1999/02/22-rdf-syntax-ns#"
   xmlns:svg="http://www.w3.org/2000/svg"
   xmlns="http://www.w3.org/2000/svg"
   xmlns:sodipodi="http://sodipodi.sourceforge.net/DTD/sodipodi-0.dtd"
   xmlns:inkscape="http://www.inkscape.org/namespaces/inkscape"
   inkscape:version="1.0 (4035a4f, 2020-05-01)"
   sodipodi:docname="line.svg"
   id="svg22"
   version="1.1"
   viewBox="0 0 496 512"
   height="512"
   width="496">
  <metadata
     id="metadata28">
    <rdf:RDF>
      <cc:Work
         rdf:about="">
        <dc:format>image/svg+xml</dc:format>
        <dc:type
           rdf:resource="http://purl.org/dc/dcmitype/StillImage" />
        <dc:title></dc:title>
      </cc:Work>
    </rdf:RDF>
  </metadata>
  <defs
     id="defs26" />
  <sodipodi:namedview
     inkscape:current-layer="svg22"
     inkscape:window-maximized="0"
     inkscape:window-y="23"
     inkscape:window-x="1865"
     inkscape:cy="256"
     inkscape:cx="224"
     inkscape:zoom="1.1601562"
     fit-margin-right="0"
     fit-margin-left="0"
     fit-margin-bottom="8"
     fit-margin-top="8"
     showgrid="false"
     id="namedview24"
     inkscape:window-height="892"
     inkscape:window-width="1131"
     inkscape:pageshadow="2"
     inkscape:pageopacity="0"
     guidetolerance="10"
     gridtolerance="10"
     objecttolerance="10"
     borderopacity="1"
     bordercolor="#666666"
     pagecolor="#ffffff" />
  <path
     style="stroke-width:1.10714"
     id="path20"
     d="m 209.72054,185.14286 c 1.0861,0 1.9685,0.34653 2.64717,1.0396 0.67868,0.69308 1.01858,1.59429 1.01858,2.70254 v 81.29529 c 0,2.356 -1.22229,3.534 -3.66575,3.534 h -12.82736 c -2.44347,0 -3.66464,-1.178 -3.66464,-3.534 V 188.885 c 0,-1.10825 0.3731,-2.00946 1.11932,-2.70254 0.74732,-0.69307 1.59539,-1.0396 2.54532,-1.0396 z m 88.164,0 c 2.30839,0 3.46203,1.24775 3.46203,3.74214 v 81.29529 c 0,2.356 -1.15364,3.534 -3.46203,3.534 h -12.82736 c -1.35736,0 -2.37482,-0.48493 -3.0535,-1.4559 l -36.44714,-50.52225 v 48.44415 c 0,2.356 -1.15365,3.534 -3.46093,3.534 h -12.82847 c -2.44235,0 -3.66464,-1.178 -3.66464,-3.534 V 188.885 c 0,-2.49439 1.22229,-3.74214 3.66464,-3.74214 h 12.82847 c 1.22118,0 2.1711,0.48493 2.84978,1.45589 l 36.44715,50.52225 v -48.236 c 0,-1.10825 0.33878,-2.00946 1.01746,-2.70254 0.67868,-0.69307 1.56107,-1.0396 2.64718,-1.0396 z m -119.11308,68.19557 c 2.44347,0 3.66575,1.178 3.66575,3.53511 v 13.30675 c 0,2.356 -1.22228,3.534 -3.66575,3.534 h -51.10682 c -2.44346,0 -3.66464,-1.178 -3.66464,-3.534 V 188.885 c 0,-2.49439 1.22118,-3.74214 3.66464,-3.74214 h 12.82847 c 2.30728,0 3.46093,1.24775 3.46093,3.74214 v 64.45343 z m 189.5639,-47.81972 h -34.61482 v 13.93008 h 34.61482 c 2.44346,0 3.66464,1.178 3.66464,3.534 v 12.89157 c 0,1.10825 -0.37311,2.04378 -1.12043,2.8066 -0.74621,0.76172 -1.59428,1.14368 -2.54421,1.14368 h -34.61482 v 13.51379 h 34.61482 c 2.44346,0 3.66464,1.178 3.66464,3.53511 v 13.30675 c 0,2.356 -1.22118,3.534 -3.66464,3.534 h -51.10682 c -2.3084,0 -3.46204,-1.178 -3.46204,-3.534 V 188.885 c 0,-2.49439 1.15364,-3.74214 3.46204,-3.74214 h 51.10682 c 0.94993,0 1.798,0.34653 2.54421,1.0396 0.74732,0.69308 1.12043,1.59429 1.12043,2.70254 v 13.09861 c 0,2.3571 -1.22118,3.5351 -3.66464,3.5351 z M 53.142857,8 C 23.792832,8 0,31.792832 0,61.142857 V 450.85714 C 0,480.2075 23.792832,504 53.142857,504 H 442.85714 C 472.2075,504 496,480.2075 496,450.85714 V 61.142857 C 496,31.792832 472.2075,8 442.85714,8 Z M 411.10539,171.33457 c 9.35868,18.61329 14.03747,38.161 14.03747,58.64204 0,32.93639 -12.65354,63.93528 -37.9595,92.99668 -16.4754,19.92857 -40.5624,41.48242 -72.261,64.66157 -31.69861,23.18025 -54.00532,37.60743 -66.92236,43.28153 -8.29914,5.28993 -17.13414,0.83147 -15.42139,-9.96428 0.2646,-1.79911 1.12043,-7.12668 2.57078,-15.98382 0.65875,-8.16518 0.46168,-13.69979 -0.59343,-16.60604 -1.71275,-4.42857 -6.91964,-7.54296 -15.61846,-9.34207 -27.94207,-3.87389 -53.18271,-12.86943 -75.72082,-26.9855 C 120.67857,337.91971 102.9841,320.17111 90.133275,298.78996 77.282557,277.40882 70.857143,254.47104 70.857143,229.97661 c 0,-20.48104 4.679007,-40.02875 14.037021,-58.64204 9.358015,-18.61328 21.945126,-34.66575 37.761766,-48.1585 C 138.47146,109.68332 157.31946,98.923 179.19882,90.89732 201.07818,82.87042 224.01154,78.85714 248,78.85714 c 23.98846,0 46.92182,4.01328 68.80118,12.04018 21.87936,8.02568 40.72736,18.786 56.54289,32.27875 15.81664,13.49275 28.40375,29.54522 37.76132,48.1585 z"
     fill="currentColor" />
</svg>
