<?xml version="1.0" encoding="UTF-8" standalone="no"?>
<svg
   xmlns:dc="http://purl.org/dc/elements/1.1/"
   xmlns:cc="http://creativecommons.org/ns#"
   xmlns:rdf="http://www.w3.org/1999/02/22-rdf-syntax-ns#"
   xmlns:svg="http://www.w3.org/2000/svg"
   xmlns="http://www.w3.org/2000/svg"
   xmlns:sodipodi="http://sodipodi.sourceforge.net/DTD/sodipodi-0.dtd"
   xmlns:inkscape="http://www.inkscape.org/namespaces/inkscape"
   inkscape:version="1.0 (4035a4f, 2020-05-01)"
   sodipodi:docname="naver-square.svg"
   id="svg32"
   version="1.1"
   viewBox="0 0 496 512"
   height="512"
   width="496">
  <metadata
     id="metadata38">
    <rdf:RDF>
      <cc:Work
         rdf:about="">
        <dc:format>image/svg+xml</dc:format>
        <dc:type
           rdf:resource="http://purl.org/dc/dcmitype/StillImage" />
        <dc:title></dc:title>
      </cc:Work>
    </rdf:RDF>
  </metadata>
  <defs
     id="defs36" />
  <sodipodi:namedview
     inkscape:current-layer="svg32"
     inkscape:window-maximized="0"
     inkscape:window-y="26"
     inkscape:window-x="1708"
     inkscape:cy="256"
     inkscape:cx="224"
     inkscape:zoom="1.1601562"
     fit-margin-right="0"
     fit-margin-left="0"
     fit-margin-bottom="8"
     fit-margin-top="8"
     showgrid="false"
     id="namedview34"
     inkscape:window-height="870"
     inkscape:window-width="1263"
     inkscape:pageshadow="2"
     inkscape:pageopacity="0"
     guidetolerance="10"
     gridtolerance="10"
     objecttolerance="10"
     borderopacity="1"
     bordercolor="#666666"
     pagecolor="#ffffff" />
  <path
     style="stroke-width:1.10714"
     id="path30"
     d="M 17.714286,8 C 13.101154,8 8.9955357,9.752939 5.3973214,13.258929 1.7991071,16.764918 0,20.916704 0,25.714286 V 486.28571 c 0,4.79725 1.7991071,8.94904 5.3973214,12.45536 C 8.9955357,502.24739 13.101154,504 17.714286,504 H 478.28571 c 4.61347,0 8.71875,-1.75261 12.31697,-5.25893 C 494.20089,495.23475 496,491.08296 496,486.28571 V 25.714286 c 0,-4.797582 -1.79911,-8.949368 -5.39732,-12.455357 C 487.00446,9.752939 482.89918,8 478.28571,8 Z m 93.276784,124 h 95.49107 l 83.03572,124 V 132 h 95.49107 V 380 H 289.51786 L 206.48214,256 v 124 h -95.49107 z"
     fill="currentColor" />
</svg>
