<?xml version="1.0" encoding="UTF-8" standalone="no"?>
<svg
   xmlns:dc="http://purl.org/dc/elements/1.1/"
   xmlns:cc="http://creativecommons.org/ns#"
   xmlns:rdf="http://www.w3.org/1999/02/22-rdf-syntax-ns#"
   xmlns:svg="http://www.w3.org/2000/svg"
   xmlns="http://www.w3.org/2000/svg"
   xmlns:sodipodi="http://sodipodi.sourceforge.net/DTD/sodipodi-0.dtd"
   xmlns:inkscape="http://www.inkscape.org/namespaces/inkscape"
   inkscape:version="1.0 (4035a4f, 2020-05-01)"
   sodipodi:docname="tablecheck.svg"
   id="svg42"
   version="1.1"
   viewBox="0 0 496 512"
   height="512"
   width="496">
  <metadata
     id="metadata48">
    <rdf:RDF>
      <cc:Work
         rdf:about="">
        <dc:format>image/svg+xml</dc:format>
        <dc:type
           rdf:resource="http://purl.org/dc/dcmitype/StillImage" />
        <dc:title></dc:title>
      </cc:Work>
    </rdf:RDF>
  </metadata>
  <defs
     id="defs46" />
  <sodipodi:namedview
     inkscape:current-layer="svg42"
     inkscape:window-maximized="0"
     inkscape:window-y="30"
     inkscape:window-x="1813"
     inkscape:cy="256"
     inkscape:cx="240"
     inkscape:zoom="1.1601562"
     fit-margin-right="0"
     fit-margin-left="0"
     fit-margin-bottom="8"
     fit-margin-top="8"
     showgrid="false"
     id="namedview44"
     inkscape:window-height="932"
     inkscape:window-width="1266"
     inkscape:pageshadow="2"
     inkscape:pageopacity="0"
     guidetolerance="10"
     gridtolerance="10"
     objecttolerance="10"
     borderopacity="1"
     bordercolor="#666666"
     pagecolor="#ffffff" />
  <path
     style="stroke-width:1.10714"
     id="path40"
     d="m 0,353.42857 88.57143,-88.57143 c 0.92258,19.375 5.35082,38.01154 13.28571,55.91072 7.9349,17.89918 19.00632,33.95275 33.21429,48.16071 14.20796,14.20797 30.26153,25.27939 48.16071,33.21429 17.89918,7.93489 36.53572,12.36346 55.91072,13.28571 L 150.57143,504 C 115.88132,490.34561 85.61901,470.41704 59.785714,444.21429 33.583296,418.38132 13.654725,388.11868 0,353.42857 Z m 496,0 -88.57143,-88.57143 c -0.92225,19.375 -5.35082,38.01154 -13.28571,55.91072 -7.9349,17.89918 -19.00632,33.95275 -33.21429,48.16071 -14.20796,14.20797 -30.26153,25.27939 -48.16071,33.21429 -17.89918,7.93489 -36.53572,12.36346 -55.91072,13.28571 L 345.42857,504 c 34.69011,-13.65439 64.95275,-33.58296 90.78572,-59.78571 C 462.41704,418.38132 482.34561,388.11868 496,353.42857 Z M 345.42857,8 256.85714,96.57143 c 19.375,0.92225 38.01154,5.35082 55.91072,13.28571 17.89918,7.9349 33.95275,19.00632 48.16071,33.21429 14.20797,14.20796 25.27939,30.26153 33.21429,48.16071 7.93489,17.89918 12.36346,36.53572 13.28571,55.91072 L 496,158.57143 C 482.34561,123.88132 462.41704,93.61868 436.21429,67.785714 410.38132,41.583296 380.11868,21.654725 345.42857,8 Z m -194.85714,0 88.57143,88.57143 c -19.375,0.92225 -38.01154,5.35082 -55.91072,13.28571 -17.89918,7.9349 -33.95275,19.00632 -48.16071,33.21429 -14.20797,14.20796 -25.27939,30.26153 -33.21429,48.16071 -7.93489,17.89918 -12.36313,36.53572 -13.28571,55.91072 L 0,158.57143 C 13.654725,123.88132 33.583296,93.61868 59.785714,67.785714 85.61901,41.583296 115.88132,21.654725 150.57143,8 Z"
     fill="currentColor" />
</svg>
